<svg width="170" height="22" viewBox="0 0 170 22" fill="none" xmlns="http://www.w3.org/2000/svg">
<g clip-path="url(#clip0_405_691)">
<path d="M33.8261 0.180664V13.0329C33.8261 14.0073 33.6093 15.6965 33.2015 16.4713C32.1434 18.4717 30.0142 19.914 27.0437 19.9205C24.0732 19.914 21.944 18.4717 20.8859 16.4713C20.4759 15.6986 20.2613 14.0095 20.2613 13.0329V0.180664H18.731V13.0329C18.731 14.2563 19.0078 16.1923 19.5337 17.186C20.4673 18.9503 22.5235 21.4336 27.0179 21.4486C27.0179 21.4486 27.0351 21.4486 27.0437 21.4486C27.0523 21.4486 27.0609 21.4486 27.0694 21.4486C31.5639 21.4315 33.62 18.9482 34.5537 17.1839C35.0774 16.1901 35.3564 14.2541 35.3564 13.0307V0.180664H33.8261Z" fill="white"/>
<path d="M13.5584 21.3413H0V0.333008H1.53033V19.8109H13.5584V21.3413Z" fill="white"/>
<path d="M75.7032 0.279297H74.1729V21.44H75.7032V0.279297Z" fill="white"/>
<path d="M107.606 0.279297H106.076V21.44H107.606V0.279297Z" fill="white"/>
<path d="M90.4033 21.1435L80.8027 0.221058H82.4661L90.6887 18.1C90.7574 18.2524 90.9742 18.2524 91.045 18.1L99.4007 0.18457L101.064 0.221058L91.3133 21.1478C91.133 21.5341 90.5814 21.5341 90.4033 21.1456V21.1435Z" fill="white"/>
<path d="M141.04 0.476203L150.64 21.3986H148.977L140.754 3.5197C140.685 3.36731 140.469 3.36731 140.398 3.5197L132.044 21.4351L130.381 21.3986L140.132 0.474057C140.312 0.0877178 140.864 0.0877178 141.042 0.476203H141.04Z" fill="white"/>
<path d="M129.647 0.0537109H113.075V1.58404H120.598V21.4397H122.126V1.58404H129.647V0.0537109Z" fill="white"/>
<path d="M170 0H156.396V1.53033H170V0Z" fill="white"/>
<path d="M170 9.94141H156.396V11.4717H170V9.94141Z" fill="white"/>
<path d="M170 19.8838H156.396V21.4141H170V19.8838Z" fill="white"/>
<path d="M63.8594 0.562534L54.8942 15.3658C54.8577 15.428 54.7955 15.4559 54.7332 15.4645C54.671 15.4581 54.6109 15.428 54.5722 15.3658L45.6092 0.562534C45.2142 -0.0899505 44.2119 0.191219 44.2119 0.953166V21.4635H45.7422V3.55881L54.3276 17.628C54.4199 17.7804 54.5787 17.8555 54.7354 17.8555C54.892 17.8555 55.0509 17.7804 55.1432 17.628L63.7285 3.55881V21.4635H65.2588V0.953166C65.2588 0.191219 64.2565 -0.0878041 63.8616 0.562534H63.8594Z" fill="white"/>
</g>
<defs>
<clipPath id="clip0_405_691">
<rect width="170" height="21.4633" fill="white"/>
</clipPath>
</defs>
</svg>
