<svg width="310" height="64" viewBox="0 0 310 64" fill="none" xmlns="http://www.w3.org/2000/svg">
<path d="M3.9161e-05 21.4367V0.60039H2.82224V21.4367H3.9161e-05ZM13.4505 21.4367V0.60039H16.2727V21.4367H13.4505ZM1.92154 11.9492V9.36723H14.1411V11.9492H1.92154ZM25.4015 21.5567L19.2167 7.17552H22.219L26.8126 18.4343H25.8519L30.6856 7.17552H33.688L27.0228 21.5567H25.4015ZM21.3183 27.4113L25.5216 18.7946L27.0228 21.5567L24.3207 27.4113H21.3183ZM41.3831 21.7369C40.0621 21.7369 38.8812 21.4166 37.8404 20.7761C36.7995 20.1156 35.9689 19.2249 35.3484 18.1041C34.7479 16.9832 34.4477 15.7222 34.4477 14.3211C34.4477 12.92 34.7479 11.659 35.3484 10.5381C35.9689 9.41727 36.7995 8.52658 37.8404 7.86606C38.8812 7.20555 40.0621 6.87529 41.3831 6.87529C42.4439 6.87529 43.4047 7.10547 44.2654 7.56583C45.126 8.00617 45.8166 8.62665 46.337 9.42728C46.8774 10.2079 47.1776 11.1186 47.2377 12.1594V16.4528C47.1776 17.4736 46.8874 18.3843 46.367 19.1849C45.8466 19.9855 45.1561 20.616 44.2954 21.0764C43.4347 21.5167 42.464 21.7369 41.3831 21.7369ZM41.8335 19.1849C42.7342 19.1849 43.5148 18.9747 44.1753 18.5544C44.8558 18.1341 45.3862 17.5636 45.7665 16.8431C46.1468 16.1025 46.337 15.2618 46.337 14.3211C46.337 13.3403 46.1368 12.4897 45.7365 11.7691C45.3562 11.0485 44.8258 10.4781 44.1453 10.0578C43.4848 9.63744 42.7041 9.42728 41.8034 9.42728C40.9027 9.42728 40.1121 9.63744 39.4316 10.0578C38.7511 10.4781 38.2106 11.0586 37.8103 11.7991C37.43 12.5197 37.2399 13.3503 37.2399 14.2911C37.2399 15.2518 37.43 16.1025 37.8103 16.8431C38.2106 17.5636 38.7511 18.1341 39.4316 18.5544C40.1321 18.9747 40.9328 19.1849 41.8335 19.1849ZM48.889 21.4367H46.1568V17.5937L46.6672 14.1109L46.1568 10.6582V-7.95747e-05H48.889V21.4367ZM52.823 21.4367V7.17552H55.5251V21.4367H52.823ZM55.5251 13.3003L54.5043 12.85C54.5043 11.0285 54.9246 9.5774 55.7653 8.49655C56.6059 7.41571 57.8169 6.87529 59.3981 6.87529C60.1187 6.87529 60.7692 7.00539 61.3496 7.26559C61.9301 7.50578 62.4705 7.9161 62.9709 8.49655L61.1995 10.328C60.8993 10.0077 60.569 9.77755 60.2087 9.63744C59.8485 9.49733 59.4281 9.42728 58.9478 9.42728C57.947 9.42728 57.1263 9.74753 56.4858 10.388C55.8453 11.0285 55.5251 11.9993 55.5251 13.3003ZM70.469 21.7369C69.168 21.7369 67.9871 21.4166 66.9263 20.7761C65.8654 20.1156 65.0248 19.2249 64.4043 18.1041C63.8038 16.9832 63.5036 15.7222 63.5036 14.3211C63.5036 12.92 63.8038 11.659 64.4043 10.5381C65.0248 9.41727 65.8554 8.52658 66.8962 7.86606C67.9571 7.20555 69.148 6.87529 70.469 6.87529C71.5499 6.87529 72.5106 7.10547 73.3513 7.56583C74.2119 8.00617 74.9025 8.62665 75.4229 9.42728C75.9433 10.2079 76.2335 11.1186 76.2936 12.1594V16.4528C76.2335 17.4736 75.9433 18.3843 75.4229 19.1849C74.9225 19.9855 74.242 20.616 73.3813 21.0764C72.5406 21.5167 71.5699 21.7369 70.469 21.7369ZM70.9194 19.1849C72.2604 19.1849 73.3413 18.7345 74.1619 17.8338C74.9825 16.9131 75.3929 15.7422 75.3929 14.3211C75.3929 13.3403 75.2027 12.4897 74.8224 11.7691C74.4621 11.0285 73.9417 10.4581 73.2612 10.0578C72.5807 9.63744 71.7901 9.42728 70.8894 9.42728C69.9886 9.42728 69.188 9.63744 68.4875 10.0578C67.8069 10.4781 67.2665 11.0586 66.8662 11.7991C66.4859 12.5197 66.2958 13.3503 66.2958 14.2911C66.2958 15.2518 66.4859 16.1025 66.8662 16.8431C67.2665 17.5636 67.817 18.1341 68.5175 18.5544C69.218 18.9747 70.0187 19.1849 70.9194 19.1849ZM75.2127 21.4367V17.5937L75.7231 14.1109L75.2127 10.6582V7.17552H77.9449V21.4367H75.2127ZM84.0119 21.4367V1.20086H86.714V21.4367H84.0119ZM80.4992 9.63744V7.17552H90.2268V9.63744H80.4992ZM92.9038 21.4367V7.17552H95.6059V21.4367H92.9038ZM94.2549 4.32329C93.7545 4.32329 93.3441 4.16317 93.0239 3.84292C92.7036 3.50265 92.5435 3.08233 92.5435 2.58194C92.5435 2.10156 92.7036 1.70125 93.0239 1.381C93.3441 1.04073 93.7545 0.870599 94.2549 0.870599C94.7552 0.870599 95.1656 1.04073 95.4858 1.381C95.8061 1.70125 95.9662 2.10156 95.9662 2.58194C95.9662 3.08233 95.8061 3.50265 95.4858 3.84292C95.1656 4.16317 94.7552 4.32329 94.2549 4.32329ZM106.103 21.7369C104.702 21.7369 103.441 21.4066 102.32 20.7461C101.199 20.0856 100.309 19.1949 99.648 18.074C98.9875 16.9331 98.6573 15.6621 98.6573 14.2611C98.6573 12.88 98.9875 11.639 99.648 10.5381C100.309 9.41727 101.199 8.52658 102.32 7.86606C103.441 7.20555 104.702 6.87529 106.103 6.87529C107.484 6.87529 108.735 7.20555 109.856 7.86606C110.997 8.50656 111.898 9.38725 112.558 10.5081C113.219 11.629 113.549 12.88 113.549 14.2611C113.549 15.6621 113.219 16.9331 112.558 18.074C111.898 19.1949 110.997 20.0856 109.856 20.7461C108.735 21.4066 107.484 21.7369 106.103 21.7369ZM106.103 19.1248C107.004 19.1248 107.804 18.9147 108.505 18.4944C109.206 18.074 109.756 17.5036 110.156 16.783C110.557 16.0424 110.757 15.2018 110.757 14.2611C110.757 13.3403 110.547 12.5197 110.126 11.7991C109.726 11.0786 109.175 10.5181 108.475 10.1178C107.794 9.69749 107.004 9.48733 106.103 9.48733C105.202 9.48733 104.402 9.69749 103.701 10.1178C103.001 10.5181 102.45 11.0786 102.05 11.7991C101.65 12.5197 101.449 13.3403 101.449 14.2611C101.449 15.2018 101.65 16.0424 102.05 16.783C102.45 17.5036 103.001 18.074 103.701 18.4944C104.402 18.9147 105.202 19.1248 106.103 19.1248ZM126.681 21.4367V13.1202C126.681 12.0393 126.341 11.1486 125.661 10.4481C124.98 9.74753 124.099 9.39726 123.018 9.39726C122.298 9.39726 121.657 9.55738 121.097 9.87763C120.537 10.1979 120.096 10.6382 119.776 11.1987C119.456 11.7591 119.296 12.3996 119.296 13.1202L118.185 12.4897C118.185 11.4088 118.425 10.4481 118.905 9.60742C119.386 8.76676 120.056 8.10625 120.917 7.62587C121.778 7.12548 122.748 6.87529 123.829 6.87529C124.91 6.87529 125.861 7.1455 126.681 7.68592C127.522 8.22634 128.183 8.9369 128.663 9.81758C129.143 10.6783 129.383 11.599 129.383 12.5797V21.4367H126.681ZM116.593 21.4367V7.17552H119.296V21.4367H116.593ZM133.192 24.7392L135.053 21.1664L136.014 20.9263C135.914 21.1464 135.784 21.3266 135.624 21.4667C135.484 21.6068 135.304 21.6768 135.083 21.6768C134.663 21.6768 134.273 21.5067 133.913 21.1664C133.572 20.8062 133.402 20.3658 133.402 19.8454C133.402 19.265 133.592 18.7846 133.973 18.4043C134.353 18.004 134.833 17.8038 135.414 17.8038C135.934 17.8038 136.394 18.004 136.795 18.4043C137.195 18.7846 137.395 19.265 137.395 19.8454C137.395 20.0656 137.345 20.3358 137.245 20.656C137.165 20.9563 136.995 21.3466 136.735 21.827L134.753 25.5799L133.192 24.7392ZM149.927 12.3696V9.99772H155.571C156.792 9.99772 157.733 9.68748 158.394 9.067C159.054 8.44651 159.384 7.60586 159.384 6.54503C159.384 5.54425 159.054 4.7136 158.394 4.05308C157.753 3.39257 156.822 3.06231 155.601 3.06231H149.927V0.60039H155.691C157.013 0.60039 158.163 0.860593 159.144 1.381C160.125 1.88139 160.876 2.57193 161.396 3.45262C161.936 4.3333 162.207 5.34409 162.207 6.48498C162.207 7.6659 161.936 8.69671 161.396 9.5774C160.876 10.4581 160.125 11.1486 159.144 11.649C158.163 12.1294 157.013 12.3696 155.691 12.3696H149.927ZM148.035 21.4367V0.60039H150.858V21.4367H148.035ZM160.045 21.4367L152.479 12.0994L155.151 11.1686L163.618 21.4367H160.045ZM172.192 21.7369C170.771 21.7369 169.49 21.4166 168.349 20.7761C167.208 20.1156 166.307 19.2249 165.647 18.1041C164.986 16.9832 164.656 15.7122 164.656 14.2911C164.656 12.89 164.976 11.629 165.617 10.5081C166.277 9.38725 167.158 8.50656 168.259 7.86606C169.38 7.20555 170.631 6.87529 172.012 6.87529C173.333 6.87529 174.494 7.17552 175.495 7.77599C176.515 8.37646 177.306 9.20711 177.866 10.2679C178.447 11.3288 178.737 12.5297 178.737 13.8707C178.737 14.0709 178.727 14.2911 178.707 14.5313C178.687 14.7514 178.647 15.0116 178.587 15.3119H166.548V13.0601H177.146L176.155 13.9308C176.155 12.97 175.985 12.1594 175.645 11.4989C175.304 10.8184 174.824 10.298 174.203 9.93768C173.583 9.55738 172.832 9.36723 171.952 9.36723C171.031 9.36723 170.22 9.56739 169.52 9.9677C168.819 10.368 168.279 10.9285 167.899 11.649C167.518 12.3696 167.328 13.2202 167.328 14.201C167.328 15.2018 167.528 16.0825 167.929 16.8431C168.329 17.5836 168.899 18.1641 169.64 18.5844C170.381 18.9847 171.231 19.1849 172.192 19.1849C172.993 19.1849 173.723 19.0448 174.384 18.7646C175.064 18.4843 175.645 18.064 176.125 17.5036L177.866 19.275C177.186 20.0756 176.345 20.6861 175.344 21.1064C174.364 21.5267 173.313 21.7369 172.192 21.7369ZM181.713 21.4367V7.17552H184.415V21.4367H181.713ZM183.064 4.32329C182.564 4.32329 182.154 4.16317 181.833 3.84292C181.513 3.50265 181.353 3.08233 181.353 2.58194C181.353 2.10156 181.513 1.70125 181.833 1.381C182.154 1.04073 182.564 0.870599 183.064 0.870599C183.565 0.870599 183.975 1.04073 184.295 1.381C184.616 1.70125 184.776 2.10156 184.776 2.58194C184.776 3.08233 184.616 3.50265 184.295 3.84292C183.975 4.16317 183.565 4.32329 183.064 4.32329ZM188.398 21.4367V7.17552H191.1V21.4367H188.398ZM198.035 21.4367V12.8199C198.035 11.7591 197.705 10.9285 197.044 10.328C196.404 9.7075 195.593 9.39726 194.612 9.39726C193.952 9.39726 193.361 9.53736 192.841 9.81758C192.321 10.0978 191.9 10.4881 191.58 10.9885C191.26 11.4889 191.1 12.0894 191.1 12.7899L189.989 12.2495C189.989 11.1686 190.219 10.2279 190.679 9.42728C191.16 8.62665 191.81 8.00617 192.631 7.56583C193.451 7.10547 194.372 6.87529 195.393 6.87529C196.394 6.87529 197.294 7.09546 198.095 7.5358C198.916 7.97615 199.556 8.59663 200.017 9.39726C200.497 10.1979 200.737 11.1486 200.737 12.2495V21.4367H198.035ZM207.673 21.4367V12.8199C207.673 11.7591 207.342 10.9285 206.682 10.328C206.041 9.7075 205.241 9.39726 204.28 9.39726C203.619 9.39726 203.019 9.53736 202.479 9.81758C201.958 10.0978 201.538 10.4881 201.218 10.9885C200.897 11.4889 200.737 12.0894 200.737 12.7899L199.206 12.2495C199.266 11.1486 199.556 10.2079 200.077 9.42728C200.617 8.62665 201.308 8.00617 202.148 7.56583C202.989 7.10547 203.91 6.87529 204.91 6.87529C205.951 6.87529 206.882 7.09546 207.703 7.5358C208.523 7.97615 209.174 8.59663 209.654 9.39726C210.155 10.1979 210.405 11.1586 210.405 12.2795V21.4367H207.673ZM220.146 21.7369C218.845 21.7369 217.664 21.4166 216.604 20.7761C215.543 20.1156 214.702 19.2249 214.082 18.1041C213.481 16.9832 213.181 15.7222 213.181 14.3211C213.181 12.92 213.481 11.659 214.082 10.5381C214.702 9.41727 215.533 8.52658 216.574 7.86606C217.634 7.20555 218.825 6.87529 220.146 6.87529C221.227 6.87529 222.188 7.10547 223.029 7.56583C223.889 8.00617 224.58 8.62665 225.1 9.42728C225.621 10.2079 225.911 11.1186 225.971 12.1594V16.4528C225.911 17.4736 225.621 18.3843 225.1 19.1849C224.6 19.9855 223.919 20.616 223.059 21.0764C222.218 21.5167 221.247 21.7369 220.146 21.7369ZM220.597 19.1849C221.938 19.1849 223.019 18.7345 223.839 17.8338C224.66 16.9131 225.07 15.7422 225.07 14.3211C225.07 13.3403 224.88 12.4897 224.5 11.7691C224.14 11.0285 223.619 10.4581 222.939 10.0578C222.258 9.63744 221.467 9.42728 220.567 9.42728C219.666 9.42728 218.865 9.63744 218.165 10.0578C217.484 10.4781 216.944 11.0586 216.544 11.7991C216.163 12.5197 215.973 13.3503 215.973 14.2911C215.973 15.2518 216.163 16.1025 216.544 16.8431C216.944 17.5636 217.494 18.1341 218.195 18.5544C218.895 18.9747 219.696 19.1849 220.597 19.1849ZM224.89 21.4367V17.5937L225.4 14.1109L224.89 10.6582V7.17552H227.622V21.4367H224.89ZM237.471 27.7115C236.01 27.7115 234.709 27.4413 233.568 26.9009C232.447 26.3605 231.546 25.5999 230.866 24.6191L232.607 22.8478C233.188 23.5883 233.878 24.1488 234.679 24.5291C235.479 24.9294 236.43 25.1295 237.531 25.1295C238.992 25.1295 240.143 24.7392 240.984 23.9586C241.844 23.198 242.275 22.1672 242.275 20.8662V17.3234L242.755 14.1109L242.275 10.9285V7.17552H244.977V20.8662C244.977 22.2273 244.656 23.4182 244.016 24.439C243.395 25.4598 242.515 26.2604 241.374 26.8409C240.253 27.4213 238.952 27.7115 237.471 27.7115ZM237.471 21.1965C236.17 21.1965 234.999 20.8862 233.958 20.2657C232.937 19.6453 232.127 18.7946 231.526 17.7137C230.926 16.6129 230.626 15.3819 230.626 14.0209C230.626 12.6598 230.926 11.4489 231.526 10.388C232.127 9.30719 232.937 8.45652 233.958 7.83604C234.999 7.19554 236.17 6.87529 237.471 6.87529C238.592 6.87529 239.582 7.09546 240.443 7.5358C241.304 7.97615 241.984 8.59663 242.485 9.39726C243.005 10.1779 243.285 11.0986 243.325 12.1594V15.9424C243.265 16.9832 242.975 17.9039 242.455 18.7045C241.954 19.4851 241.274 20.0956 240.413 20.5359C239.552 20.9763 238.572 21.1965 237.471 21.1965ZM238.011 18.6445C238.892 18.6445 239.663 18.4543 240.323 18.074C241.004 17.6937 241.524 17.1633 241.884 16.4828C242.245 15.7822 242.425 14.9716 242.425 14.0509C242.425 13.1302 242.235 12.3295 241.854 11.649C241.494 10.9485 240.984 10.408 240.323 10.0277C239.663 9.62744 238.882 9.42728 237.981 9.42728C237.081 9.42728 236.29 9.62744 235.609 10.0277C234.929 10.408 234.388 10.9485 233.988 11.649C233.608 12.3295 233.418 13.1202 233.418 14.0209C233.418 14.9216 233.608 15.7222 233.988 16.4227C234.388 17.1233 234.929 17.6737 235.609 18.074C236.31 18.4543 237.111 18.6445 238.011 18.6445ZM248.973 21.4367V7.17552H251.675V21.4367H248.973ZM250.324 4.32329C249.824 4.32329 249.413 4.16317 249.093 3.84292C248.773 3.50265 248.613 3.08233 248.613 2.58194C248.613 2.10156 248.773 1.70125 249.093 1.381C249.413 1.04073 249.824 0.870599 250.324 0.870599C250.824 0.870599 251.235 1.04073 251.555 1.381C251.875 1.70125 252.035 2.10156 252.035 2.58194C252.035 3.08233 251.875 3.50265 251.555 3.84292C251.235 4.16317 250.824 4.32329 250.324 4.32329ZM265.745 21.4367V13.1202C265.745 12.0393 265.405 11.1486 264.724 10.4481C264.044 9.74753 263.163 9.39726 262.082 9.39726C261.362 9.39726 260.721 9.55738 260.161 9.87763C259.6 10.1979 259.16 10.6382 258.84 11.1987C258.519 11.7591 258.359 12.3996 258.359 13.1202L257.248 12.4897C257.248 11.4088 257.488 10.4481 257.969 9.60742C258.449 8.76676 259.12 8.10625 259.98 7.62587C260.841 7.12548 261.812 6.87529 262.893 6.87529C263.974 6.87529 264.924 7.1455 265.745 7.68592C266.586 8.22634 267.246 8.9369 267.726 9.81758C268.207 10.6783 268.447 11.599 268.447 12.5797V21.4367H265.745ZM255.657 21.4367V7.17552H258.359V21.4367H255.657ZM278.711 21.7369C277.29 21.7369 276.009 21.4166 274.868 20.7761C273.727 20.1156 272.826 19.2249 272.166 18.1041C271.505 16.9832 271.175 15.7122 271.175 14.2911C271.175 12.89 271.495 11.629 272.135 10.5081C272.796 9.38725 273.677 8.50656 274.778 7.86606C275.898 7.20555 277.149 6.87529 278.53 6.87529C279.851 6.87529 281.012 7.17552 282.013 7.77599C283.034 8.37646 283.825 9.20711 284.385 10.2679C284.965 11.3288 285.256 12.5297 285.256 13.8707C285.256 14.0709 285.246 14.2911 285.226 14.5313C285.206 14.7514 285.166 15.0116 285.106 15.3119H273.066V13.0601H283.664L282.674 13.9308C282.674 12.97 282.504 12.1594 282.163 11.4989C281.823 10.8184 281.343 10.298 280.722 9.93768C280.102 9.55738 279.351 9.36723 278.47 9.36723C277.55 9.36723 276.739 9.56739 276.039 9.9677C275.338 10.368 274.798 10.9285 274.417 11.649C274.037 12.3696 273.847 13.2202 273.847 14.201C273.847 15.2018 274.047 16.0825 274.447 16.8431C274.848 17.5836 275.418 18.1641 276.159 18.5844C276.899 18.9847 277.75 19.1849 278.711 19.1849C279.511 19.1849 280.242 19.0448 280.902 18.7646C281.583 18.4843 282.163 18.064 282.644 17.5036L284.385 19.275C283.705 20.0756 282.864 20.6861 281.863 21.1064C280.882 21.5267 279.831 21.7369 278.711 21.7369ZM294.237 21.7369C292.916 21.7369 291.735 21.4166 290.694 20.7761C289.653 20.1156 288.822 19.2249 288.202 18.1041C287.602 16.9832 287.301 15.7222 287.301 14.3211C287.301 12.92 287.602 11.659 288.202 10.5381C288.822 9.41727 289.653 8.52658 290.694 7.86606C291.735 7.20555 292.916 6.87529 294.237 6.87529C295.298 6.87529 296.258 7.10547 297.119 7.56583C297.98 8.00617 298.67 8.62665 299.191 9.42728C299.731 10.2079 300.031 11.1186 300.091 12.1594V16.4528C300.031 17.4736 299.741 18.3843 299.221 19.1849C298.7 19.9855 298.01 20.616 297.149 21.0764C296.288 21.5167 295.318 21.7369 294.237 21.7369ZM294.687 19.1849C295.588 19.1849 296.368 18.9747 297.029 18.5544C297.709 18.1341 298.24 17.5636 298.62 16.8431C299 16.1025 299.191 15.2618 299.191 14.3211C299.191 13.3403 298.99 12.4897 298.59 11.7691C298.21 11.0485 297.679 10.4781 296.999 10.0578C296.338 9.63744 295.558 9.42728 294.657 9.42728C293.756 9.42728 292.966 9.63744 292.285 10.0578C291.605 10.4781 291.064 11.0586 290.664 11.7991C290.284 12.5197 290.093 13.3503 290.093 14.2911C290.093 15.2518 290.284 16.1025 290.664 16.8431C291.064 17.5636 291.605 18.1341 292.285 18.5544C292.986 18.9747 293.786 19.1849 294.687 19.1849ZM301.743 21.4367H299.01V17.5937L299.521 14.1109L299.01 10.6582V-7.95747e-05H301.743V21.4367ZM308.048 21.7369C307.488 21.7369 307.018 21.5467 306.637 21.1664C306.277 20.7661 306.097 20.2958 306.097 19.7553C306.097 19.1949 306.277 18.7345 306.637 18.3743C307.018 17.994 307.488 17.8038 308.048 17.8038C308.609 17.8038 309.069 17.994 309.43 18.3743C309.81 18.7345 310 19.1949 310 19.7553C310 20.2958 309.81 20.7661 309.43 21.1664C309.069 21.5467 308.609 21.7369 308.048 21.7369ZM3.9161e-05 57.4648V36.6285H2.82224V57.4648H3.9161e-05ZM1.92154 57.4648V54.8828H13.8709V57.4648H1.92154ZM1.92154 48.0374V45.5755H12.8801V48.0374H1.92154ZM1.92154 39.2105V36.6285H13.7207V39.2105H1.92154ZM27.3167 57.4648V49.1483C27.3167 48.0674 26.9764 47.1767 26.2959 46.4762C25.6153 45.7756 24.7347 45.4254 23.6538 45.4254C22.9333 45.4254 22.2928 45.5855 21.7323 45.9057C21.1719 46.226 20.7315 46.6663 20.4113 47.2268C20.091 47.7872 19.9309 48.4277 19.9309 49.1483L18.82 48.5178C18.82 47.4369 19.0602 46.4762 19.5406 45.6355C20.021 44.7949 20.6915 44.1344 21.5522 43.654C22.4128 43.1536 23.3836 42.9034 24.4644 42.9034C25.5453 42.9034 26.496 43.1736 27.3167 43.714C28.1573 44.2545 28.8178 44.965 29.2982 45.8457C29.7786 46.7064 30.0188 47.6271 30.0188 48.6079V57.4648H27.3167ZM17.2288 57.4648V43.2036H19.9309V57.4648H17.2288ZM40.2823 57.765C38.8612 57.765 37.5802 57.4448 36.4393 56.8043C35.2984 56.1437 34.3977 55.253 33.7372 54.1322C33.0767 53.0113 32.7465 51.7403 32.7465 50.3192C32.7465 48.9181 33.0667 47.6571 33.7072 46.5362C34.3677 45.4154 35.2484 44.5347 36.3493 43.8942C37.4701 43.2337 38.7211 42.9034 40.1022 42.9034C41.4232 42.9034 42.5841 43.2036 43.5849 43.8041C44.6057 44.4046 45.3963 45.2352 45.9568 46.2961C46.5372 47.3569 46.8274 48.5578 46.8274 49.8989C46.8274 50.099 46.8174 50.3192 46.7974 50.5594C46.7774 50.7796 46.7374 51.0398 46.6773 51.34H34.6379V49.0882H45.2362L44.2454 49.9589C44.2454 48.9982 44.0753 48.1875 43.735 47.527C43.3948 46.8465 42.9144 46.3261 42.2939 45.9658C41.6734 45.5855 40.9228 45.3954 40.0422 45.3954C39.1214 45.3954 38.3108 45.5955 37.6103 45.9958C36.9097 46.3961 36.3693 46.9566 35.989 47.6771C35.6087 48.3977 35.4185 49.2484 35.4185 50.2291C35.4185 51.2299 35.6187 52.1106 36.019 52.8712C36.4193 53.6118 36.9898 54.1922 37.7303 54.6125C38.4709 55.0129 39.3216 55.213 40.2823 55.213C41.083 55.213 41.8135 55.0729 42.474 54.7927C43.1546 54.5125 43.735 54.0921 44.2154 53.5317L45.9568 55.3031C45.2762 56.1037 44.4356 56.7142 43.4348 57.1345C42.454 57.5548 41.4032 57.765 40.2823 57.765ZM49.7737 57.4648V43.2036H52.4758V57.4648H49.7737ZM52.4758 49.3284L51.455 48.8781C51.455 47.0566 51.8754 45.6055 52.716 44.5247C53.5567 43.4438 54.7676 42.9034 56.3489 42.9034C57.0694 42.9034 57.7199 43.0335 58.3004 43.2937C58.8808 43.5339 59.4213 43.9442 59.9216 44.5247L58.1503 46.3561C57.85 46.0359 57.5198 45.8057 57.1595 45.6656C56.7992 45.5255 56.3789 45.4554 55.8985 45.4554C54.8977 45.4554 54.0771 45.7756 53.4366 46.4161C52.7961 47.0566 52.4758 48.0274 52.4758 49.3284ZM67.2697 63.7397C65.8085 63.7397 64.5075 63.4695 63.3666 62.929C62.2457 62.3886 61.345 61.628 60.6645 60.6473L62.4059 58.8759C62.9863 59.6165 63.6768 60.1769 64.4775 60.5572C65.2781 60.9575 66.2288 61.1577 67.3297 61.1577C68.7908 61.1577 69.9417 60.7673 70.7824 59.9867C71.6431 59.2261 72.0734 58.1953 72.0734 56.8943V53.3516L72.5538 50.1391L72.0734 46.9566V43.2036H74.7755V56.8943C74.7755 58.2554 74.4553 59.4463 73.8148 60.4671C73.1943 61.4879 72.3136 62.2885 71.1727 62.869C70.0518 63.4494 68.7508 63.7397 67.2697 63.7397ZM67.2697 57.2246C65.9686 57.2246 64.7977 56.9143 63.7569 56.2939C62.7361 55.6734 61.9255 54.8227 61.325 53.7419C60.7245 52.641 60.4243 51.41 60.4243 50.049C60.4243 48.6879 60.7245 47.477 61.325 46.4161C61.9255 45.3353 62.7361 44.4846 63.7569 43.8642C64.7977 43.2237 65.9686 42.9034 67.2697 42.9034C68.3905 42.9034 69.3813 43.1236 70.242 43.5639C71.1026 44.0043 71.7832 44.6247 72.2836 45.4254C72.804 46.206 73.0842 47.1267 73.1242 48.1875V51.9705C73.0642 53.0113 72.7739 53.932 72.2535 54.7326C71.7531 55.5132 71.0726 56.1237 70.2119 56.5641C69.3513 57.0044 68.3705 57.2246 67.2697 57.2246ZM67.8101 54.6726C68.6908 54.6726 69.4614 54.4824 70.1219 54.1021C70.8024 53.7218 71.3228 53.1914 71.6831 52.5109C72.0434 51.8104 72.2235 50.9997 72.2235 50.079C72.2235 49.1583 72.0334 48.3577 71.6531 47.6771C71.2928 46.9766 70.7824 46.4362 70.1219 46.0559C69.4614 45.6556 68.6808 45.4554 67.78 45.4554C66.8793 45.4554 66.0887 45.6556 65.4082 46.0559C64.7277 46.4362 64.1872 46.9766 63.7869 47.6771C63.4066 48.3577 63.2165 49.1483 63.2165 50.049C63.2165 50.9497 63.4066 51.7503 63.7869 52.4509C64.1872 53.1514 64.7277 53.7018 65.4082 54.1021C66.1087 54.4824 66.9094 54.6726 67.8101 54.6726ZM83.4253 57.5849L77.2405 43.2036H80.2428L84.8364 54.4624H83.8757L88.7094 43.2036H91.7118L85.0466 57.5849H83.4253ZM79.3421 63.4394L83.5454 54.8227L85.0466 57.5849L82.3445 63.4394H79.3421ZM92.2616 60.7673L94.123 57.1946L95.0838 56.9544C94.9837 57.1745 94.8536 57.3547 94.6935 57.4948C94.5534 57.6349 94.3732 57.705 94.1531 57.705C93.7327 57.705 93.3424 57.5348 92.9821 57.1946C92.6419 56.8343 92.4717 56.3939 92.4717 55.8735C92.4717 55.2931 92.6619 54.8127 93.0422 54.4324C93.4225 54.0321 93.9029 53.8319 94.4833 53.8319C95.0037 53.8319 95.4641 54.0321 95.8644 54.4324C96.2647 54.8127 96.4649 55.2931 96.4649 55.8735C96.4649 56.0937 96.4148 56.3639 96.3147 56.6842C96.2347 56.9844 96.0645 57.3747 95.8043 57.8551L93.8228 61.608L92.2616 60.7673ZM111.879 57.4648V36.5685H116.593V57.4648H111.879ZM105.244 40.3814V36.2682H123.228V40.3814H105.244ZM128.993 57.795C127.652 57.795 126.461 57.5248 125.42 56.9844C124.399 56.424 123.598 55.6634 123.018 54.7026C122.438 53.7218 122.147 52.601 122.147 51.34V42.8734H126.741V51.2799C126.741 51.7803 126.821 52.2107 126.981 52.571C127.161 52.9312 127.421 53.2115 127.762 53.4116C128.102 53.6118 128.512 53.7118 128.993 53.7118C129.673 53.7118 130.214 53.5017 130.614 53.0813C131.014 52.641 131.214 52.0405 131.214 51.2799V42.8734H135.808V51.31C135.808 52.591 135.518 53.7218 134.937 54.7026C134.357 55.6634 133.556 56.424 132.535 56.9844C131.515 57.5248 130.334 57.795 128.993 57.795ZM148.33 57.4648V49.1483C148.33 48.3877 148.089 47.7772 147.609 47.3169C147.149 46.8365 146.558 46.5963 145.838 46.5963C145.337 46.5963 144.897 46.7064 144.517 46.9265C144.136 47.1267 143.836 47.4269 143.616 47.8272C143.396 48.2075 143.286 48.6479 143.286 49.1483L141.514 48.2776C141.514 47.1367 141.765 46.1359 142.265 45.2753C142.765 44.4146 143.456 43.7541 144.337 43.2937C145.237 42.8133 146.248 42.5731 147.369 42.5731C148.45 42.5731 149.4 42.8334 150.221 43.3538C151.062 43.8541 151.722 44.5247 152.203 45.3653C152.683 46.206 152.923 47.1267 152.923 48.1275V57.4648H148.33ZM138.692 57.4648V42.8734H143.286V57.4648H138.692ZM163.079 57.795C161.498 57.795 160.087 57.4748 158.846 56.8343C157.625 56.1738 156.664 55.2631 155.964 54.1021C155.263 52.9412 154.913 51.6302 154.913 50.1691C154.913 48.7079 155.253 47.4069 155.934 46.266C156.634 45.1051 157.575 44.1944 158.756 43.5339C159.937 42.8734 161.268 42.5431 162.749 42.5431C164.19 42.5431 165.461 42.8534 166.562 43.4739C167.663 44.0943 168.523 44.955 169.144 46.0559C169.784 47.1567 170.105 48.4177 170.105 49.8388C170.105 50.099 170.085 50.3792 170.045 50.6795C170.025 50.9597 169.974 51.29 169.894 51.6702L157.315 51.7003V48.5478L167.943 48.5178L165.961 49.8388C165.941 48.9982 165.811 48.3076 165.571 47.7672C165.331 47.2068 164.971 46.7864 164.49 46.5062C164.03 46.206 163.459 46.0559 162.779 46.0559C162.058 46.0559 161.428 46.226 160.887 46.5663C160.367 46.8865 159.957 47.3469 159.656 47.9473C159.376 48.5478 159.236 49.2784 159.236 50.1391C159.236 50.9997 159.386 51.7403 159.686 52.3608C160.007 52.9613 160.447 53.4316 161.007 53.7719C161.588 54.0921 162.268 54.2523 163.049 54.2523C163.77 54.2523 164.42 54.1322 165.001 53.892C165.581 53.6318 166.091 53.2515 166.532 52.7511L169.054 55.2731C168.333 56.1137 167.463 56.7442 166.442 57.1645C165.421 57.5849 164.3 57.795 163.079 57.795ZM178.537 57.765C177.156 57.765 175.925 57.4347 174.844 56.7742C173.783 56.1137 172.942 55.213 172.322 54.0721C171.721 52.9312 171.421 51.6302 171.421 50.1691C171.421 48.7079 171.721 47.4069 172.322 46.266C172.942 45.1251 173.783 44.2244 174.844 43.5639C175.925 42.9034 177.156 42.5731 178.537 42.5731C179.538 42.5731 180.438 42.7633 181.239 43.1436C182.059 43.5239 182.73 44.0543 183.25 44.7348C183.791 45.3954 184.091 46.1559 184.151 47.0166V53.1714C184.091 54.0321 183.801 54.8127 183.28 55.5132C182.76 56.1938 182.089 56.7442 181.269 57.1645C180.448 57.5648 179.538 57.765 178.537 57.765ZM179.347 53.6218C180.008 53.6218 180.578 53.4817 181.059 53.2014C181.539 52.9012 181.919 52.4909 182.2 51.9705C182.48 51.4501 182.62 50.8496 182.62 50.1691C182.62 49.4885 182.48 48.8981 182.2 48.3977C181.939 47.8773 181.559 47.467 181.059 47.1667C180.578 46.8665 180.018 46.7164 179.377 46.7164C178.737 46.7164 178.166 46.8665 177.666 47.1667C177.186 47.467 176.795 47.8773 176.495 48.3977C176.215 48.9181 176.075 49.5086 176.075 50.1691C176.075 50.8296 176.215 51.4201 176.495 51.9405C176.775 52.4609 177.166 52.8712 177.666 53.1714C178.166 53.4717 178.727 53.6218 179.347 53.6218ZM186.943 57.4648H182.44V53.5317L183.13 49.9889L182.35 46.4462V35.6678H186.943V57.4648ZM197.967 57.4648V36.8387H202.56V57.4648H197.967ZM194.664 46.7764V42.8734H205.863V46.7764H194.664ZM214.619 57.795C213.118 57.795 211.757 57.4648 210.536 56.8043C209.335 56.1237 208.384 55.203 207.684 54.0421C206.983 52.8812 206.633 51.5802 206.633 50.1391C206.633 48.6979 206.983 47.4069 207.684 46.266C208.384 45.1251 209.335 44.2244 210.536 43.5639C211.737 42.8834 213.098 42.5431 214.619 42.5431C216.14 42.5431 217.501 42.8734 218.702 43.5339C219.903 44.1944 220.854 45.1051 221.554 46.266C222.255 47.4069 222.605 48.6979 222.605 50.1391C222.605 51.5802 222.255 52.8812 221.554 54.0421C220.854 55.203 219.903 56.1237 218.702 56.8043C217.501 57.4648 216.14 57.795 214.619 57.795ZM214.619 53.6218C215.28 53.6218 215.86 53.4817 216.36 53.2014C216.861 52.9012 217.241 52.4909 217.501 51.9705C217.781 51.4301 217.922 50.8196 217.922 50.1391C217.922 49.4585 217.781 48.8681 217.501 48.3677C217.221 47.8473 216.831 47.447 216.33 47.1667C215.85 46.8665 215.28 46.7164 214.619 46.7164C213.979 46.7164 213.408 46.8665 212.908 47.1667C212.407 47.447 212.017 47.8473 211.737 48.3677C211.457 48.8881 211.316 49.4885 211.316 50.1691C211.316 50.8296 211.457 51.4301 211.737 51.9705C212.017 52.4909 212.407 52.9012 212.908 53.2014C213.408 53.4817 213.979 53.6218 214.619 53.6218ZM236.695 49.5686L228.528 36.2682H233.993L240.267 47.0166H236.755L243.03 36.2682H248.374L240.147 49.5686H236.695ZM236.124 57.4648V47.4069H240.838V57.4648H236.124ZM253.145 57.795C251.644 57.795 250.283 57.4648 249.062 56.8043C247.861 56.1237 246.91 55.203 246.21 54.0421C245.509 52.8812 245.159 51.5802 245.159 50.1391C245.159 48.6979 245.509 47.4069 246.21 46.266C246.91 45.1251 247.861 44.2244 249.062 43.5639C250.263 42.8834 251.624 42.5431 253.145 42.5431C254.666 42.5431 256.027 42.8734 257.228 43.5339C258.429 44.1944 259.38 45.1051 260.081 46.266C260.781 47.4069 261.131 48.6979 261.131 50.1391C261.131 51.5802 260.781 52.8812 260.081 54.0421C259.38 55.203 258.429 56.1237 257.228 56.8043C256.027 57.4648 254.666 57.795 253.145 57.795ZM253.145 53.6218C253.806 53.6218 254.386 53.4817 254.887 53.2014C255.387 52.9012 255.767 52.4909 256.027 51.9705C256.308 51.4301 256.448 50.8196 256.448 50.1391C256.448 49.4585 256.308 48.8681 256.027 48.3677C255.747 47.8473 255.357 47.447 254.857 47.1667C254.376 46.8665 253.806 46.7164 253.145 46.7164C252.505 46.7164 251.934 46.8665 251.434 47.1667C250.933 47.447 250.543 47.8473 250.263 48.3677C249.983 48.8881 249.843 49.4885 249.843 50.1691C249.843 50.8296 249.983 51.4301 250.263 51.9705C250.543 52.4909 250.933 52.9012 251.434 53.2014C251.934 53.4817 252.505 53.6218 253.145 53.6218ZM269.903 57.795C268.562 57.795 267.371 57.5248 266.331 56.9844C265.31 56.424 264.509 55.6634 263.929 54.7026C263.348 53.7218 263.058 52.601 263.058 51.34V42.8734H267.652V51.2799C267.652 51.7803 267.732 52.2107 267.892 52.571C268.072 52.9312 268.332 53.2115 268.672 53.4116C269.013 53.6118 269.423 53.7118 269.903 53.7118C270.584 53.7118 271.124 53.5017 271.525 53.0813C271.925 52.641 272.125 52.0405 272.125 51.2799V42.8734H276.719V51.31C276.719 52.591 276.429 53.7218 275.848 54.7026C275.268 55.6634 274.467 56.424 273.446 56.9844C272.425 57.5248 271.244 57.795 269.903 57.795ZM282.335 57.765C281.775 57.765 281.304 57.5749 280.924 57.1946C280.564 56.7942 280.383 56.3239 280.383 55.7835C280.383 55.223 280.564 54.7627 280.924 54.4024C281.304 54.0221 281.775 53.8319 282.335 53.8319C282.895 53.8319 283.356 54.0221 283.716 54.4024C284.096 54.7627 284.287 55.223 284.287 55.7835C284.287 56.3239 284.096 56.7942 283.716 57.1946C283.356 57.5749 282.895 57.765 282.335 57.765Z" fill="white"/>
</svg>
