<svg width="32" height="32" viewBox="0 0 32 32" fill="none" xmlns="http://www.w3.org/2000/svg">
<path d="M16 19.332C18.1217 19.332 20.1566 18.4892 21.6569 16.9889C23.1571 15.4886 24 13.4538 24 11.332C24 9.2103 23.1571 7.17547 21.6569 5.67518C20.1566 4.17489 18.1217 3.33203 16 3.33203C13.8783 3.33203 11.8434 4.17489 10.3431 5.67518C8.84286 7.17547 8 9.2103 8 11.332C8 13.4538 8.84286 15.4886 10.3431 16.9889C11.8434 18.4892 13.8783 19.332 16 19.332Z" stroke="#3FFFF8" stroke-width="2" stroke-linecap="round" stroke-linejoin="round"/>
<path d="M21.3335 28.6641C22.3841 28.6641 23.4244 28.4571 24.395 28.0551C25.3656 27.6531 26.2475 27.0638 26.9904 26.3209C27.7332 25.578 28.3225 24.6961 28.7245 23.7255C29.1266 22.7549 29.3335 21.7146 29.3335 20.6641C29.3335 19.6135 29.1266 18.5732 28.7245 17.6026C28.3225 16.632 27.7332 15.7501 26.9904 15.0072C26.2475 14.2643 25.3656 13.6751 24.395 13.273C23.4244 12.871 22.3841 12.6641 21.3335 12.6641C19.2118 12.6641 17.1769 13.5069 15.6766 15.0072C14.1764 16.5075 13.3335 18.5423 13.3335 20.6641C13.3335 22.7858 14.1764 24.8206 15.6766 26.3209C17.1769 27.8212 19.2118 28.6641 21.3335 28.6641Z" stroke="#3FFFF8" stroke-width="2" stroke-linecap="round" stroke-linejoin="round"/>
<path d="M10.6667 28.6641C11.7173 28.6641 12.7576 28.4571 13.7282 28.0551C14.6988 27.6531 15.5807 27.0638 16.3236 26.3209C17.0665 25.578 17.6557 24.6961 18.0578 23.7255C18.4598 22.7549 18.6667 21.7146 18.6667 20.6641C18.6667 19.6135 18.4598 18.5732 18.0578 17.6026C17.6557 16.632 17.0665 15.7501 16.3236 15.0072C15.5807 14.2643 14.6988 13.6751 13.7282 13.273C12.7576 12.871 11.7173 12.6641 10.6667 12.6641C8.54502 12.6641 6.51018 13.5069 5.00989 15.0072C3.5096 16.5075 2.66675 18.5423 2.66675 20.6641C2.66675 22.7858 3.5096 24.8206 5.00989 26.3209C6.51018 27.8212 8.54502 28.6641 10.6667 28.6641Z" stroke="#3FFFF8" stroke-width="2" stroke-linecap="round" stroke-linejoin="round"/>
</svg>
