<svg width="32" height="32" viewBox="0 0 32 32" fill="none" xmlns="http://www.w3.org/2000/svg">
<path d="M13.3333 10.6667V16M13.3333 16V21.3333M13.3333 16H18.6667M18.6667 16V10.6667M18.6667 16V21.3333M28 4.8V27.2C28 27.4122 27.9157 27.6157 27.7657 27.7657C27.6157 27.9157 27.4122 28 27.2 28H4.8C4.58783 28 4.38434 27.9157 4.23431 27.7657C4.08429 27.6157 4 27.4122 4 27.2V4.8C4 4.58783 4.08429 4.38434 4.23431 4.23431C4.38434 4.08429 4.58783 4 4.8 4H27.2C27.4122 4 27.6157 4.08429 27.7657 4.23431C27.9157 4.38434 28 4.58783 28 4.8Z" stroke="#3FFFF8" stroke-width="2" stroke-linecap="round" stroke-linejoin="round"/>
</svg>
