<svg width="32" height="32" viewBox="0 0 32 32" fill="none" xmlns="http://www.w3.org/2000/svg">
<path d="M11.9988 28.9883V25.9883V28.9883ZM5.63503 26.352L7.75628 24.2308L5.63503 26.352ZM2.99878 19.9883H5.99878H2.99878Z" fill="#3FFFF8"/>
<path d="M11.9988 28.9883V25.9883M5.63503 26.352L7.75628 24.2308M2.99878 19.9883H5.99878" stroke="#3FFFF8" stroke-width="2" stroke-miterlimit="10" stroke-linecap="round"/>
<path d="M16.7225 19.5213L14.7781 21.4657C14.6853 21.5585 14.6116 21.6688 14.5613 21.7901C14.511 21.9115 14.4852 22.0415 14.4852 22.1729C14.4852 22.3042 14.511 22.4343 14.5613 22.5556C14.6116 22.6769 14.6853 22.7872 14.7781 22.88L17.6069 25.7082C17.7944 25.8956 18.0487 26.0008 18.3138 26.0008C18.5789 26.0008 18.8331 25.8956 19.0206 25.7082L20.9657 23.7638C20.9889 23.7406 21.0073 23.713 21.0199 23.6827C21.0325 23.6523 21.039 23.6198 21.039 23.5869C21.039 23.5541 21.0325 23.5215 21.0199 23.4912C21.0073 23.4608 20.9889 23.4333 20.9657 23.41L17.0763 19.5213C17.0531 19.4981 17.0255 19.4796 16.9951 19.467C16.9648 19.4545 16.9323 19.448 16.8994 19.448C16.8665 19.448 16.834 19.4545 16.8037 19.467C16.7733 19.4796 16.7457 19.4981 16.7225 19.5213ZM8.23752 11.0357L6.29315 12.9807C6.10576 13.1682 6.00049 13.4224 6.00049 13.6875C6.00049 13.9527 6.10576 14.2069 6.29315 14.3944L9.12127 17.2232C9.21414 17.3161 9.32439 17.3897 9.44573 17.44C9.56707 17.4903 9.69712 17.5161 9.82846 17.5161C9.9598 17.5161 10.0899 17.4903 10.2112 17.44C10.3325 17.3897 10.4428 17.3161 10.5357 17.2232L12.48 15.2788C12.5033 15.2556 12.5217 15.228 12.5343 15.1977C12.5469 15.1673 12.5533 15.1348 12.5533 15.1019C12.5533 15.0691 12.5469 15.0365 12.5343 15.0062C12.5217 14.9758 12.5033 14.9483 12.48 14.925L8.59128 11.0357C8.56806 11.0124 8.54048 10.994 8.51013 10.9814C8.47979 10.9688 8.44725 10.9624 8.4144 10.9624C8.38155 10.9624 8.34901 10.9688 8.31866 10.9814C8.28832 10.994 8.26074 11.0124 8.23752 11.0357ZM26.8032 5.2063C25.9676 4.36973 24.9754 3.706 23.8832 3.25304C22.7911 2.80008 21.6204 2.56675 20.438 2.56641C19.2556 2.56606 18.0848 2.79869 16.9923 3.25101C15.8999 3.70333 14.9073 4.36647 14.0713 5.20255L10.005 9.26817C9.98178 9.29139 9.96334 9.31896 9.95076 9.34931C9.93818 9.37966 9.9317 9.41219 9.9317 9.44505C9.9317 9.4779 9.93818 9.51043 9.95076 9.54078C9.96334 9.57113 9.98178 9.5987 10.005 9.62192L13.8944 13.5107C13.9176 13.5339 13.9452 13.5524 13.9755 13.5649C14.0059 13.5775 14.0384 13.584 14.0713 13.584C14.1041 13.584 14.1367 13.5775 14.167 13.5649C14.1974 13.5524 14.2249 13.5339 14.2481 13.5107L18.3106 9.44505C18.5923 9.16342 18.9272 8.94069 19.2958 8.78986C19.6645 8.63903 20.0595 8.56312 20.4578 8.56655C20.856 8.56998 21.2497 8.65269 21.6156 8.80985C21.9816 8.96701 22.3126 9.19548 22.5894 9.48192C23.7331 10.6644 23.6813 12.5594 22.5182 13.7225L18.4907 17.7513C18.4674 17.7745 18.449 17.8021 18.4364 17.8324C18.4238 17.8628 18.4173 17.8953 18.4173 17.9282C18.4173 17.961 18.4238 17.9936 18.4364 18.0239C18.449 18.0543 18.4674 18.0818 18.4907 18.105L22.3794 21.9944C22.4026 22.0177 22.4302 22.0361 22.4605 22.0487C22.4909 22.0613 22.5234 22.0677 22.5563 22.0677C22.5891 22.0677 22.6217 22.0613 22.652 22.0487C22.6824 22.0361 22.7099 22.0177 22.7332 21.9944L26.7381 17.9894C30.2613 14.4682 30.3238 8.7313 26.8032 5.2063Z" fill="#3FFFF8"/>
</svg>
