<svg width="477" height="498" viewBox="0 0 477 498" fill="none" xmlns="http://www.w3.org/2000/svg">
<g clip-path="url(#clip0_796_1328)">
<g filter="url(#filter0_d_796_1328)">
<path d="M319.608 373.939C334.005 390.355 355.582 395.456 376.878 393.252C380.35 392.893 384.523 390.032 386.492 387.228C388.183 384.822 389.53 373.214 390.149 369.561C391.993 358.66 393.312 347.351 396.859 336.821C397.289 335.541 399.212 329.492 401.003 330.011C401.963 330.868 402.307 332.577 402.549 333.821C403.669 339.493 403.64 346.228 404.482 352.146C406.565 366.792 411.033 383.557 415.987 397.506C417.373 401.412 421.094 408.179 421.752 411.641C423.024 418.344 415.891 423.604 410.702 426.369C396.703 433.822 367.993 431.366 352.888 427.197C270.111 404.355 270.555 284.725 274.702 216.445C275.097 209.948 276.202 203.384 276.472 196.89C276.746 190.322 276.799 182.432 267.861 183.659C261.211 184.572 251.153 188.385 244.138 190.145C220.286 196.123 196.161 201.29 172.061 206.209C155.133 209.664 138.081 213.303 120.989 215.546C119.156 215.297 117.403 214.803 115.705 214.081C111.863 212.45 98.542 200.768 97.33 196.919C96.342 193.777 97.9591 192.075 101.083 191.741C107.64 191.04 115.694 193.02 122.422 192.466C165.429 190.664 209.553 183.054 250.005 168.291C254.057 166.812 258.443 165.113 262.267 163.137C268.749 159.79 274.749 153.68 282.351 153.357C292.668 152.92 313.939 163.663 320.895 171.312C322.81 173.419 326.03 177.912 325.518 180.876C325.284 182.23 321.001 188.752 320.01 190.664C294.456 240.012 279.87 328.625 319.608 373.936V373.939Z" fill="#3FFFF8"/>
<path d="M175.189 286.989C190.685 285.219 205.882 280.35 221.26 278.15C226.659 277.375 232.182 277.233 237.573 276.387C242.258 277.038 252.191 285.212 251.978 290.007C251.871 292.434 249.106 293.131 247.112 293.344C241.099 293.994 234.105 293.031 227.949 293.372C221.122 293.752 213.21 295.281 206.344 296.29C195.71 297.854 185.112 299.83 174.514 301.6L174.464 409.778C173.906 413.958 171.802 417.654 169.289 420.949C165.44 426.003 161.296 430.061 155.112 425.235C153.491 423.97 148.143 417.985 147.837 416.161C147.059 411.534 150.193 403.751 151.259 399.009C155.851 378.613 157.095 356.684 159.171 335.886C158.766 333.092 155.357 331.489 153.132 333.359C134.658 353.983 110.775 371.21 86.3375 384.203C77.4595 388.923 61.7754 396.404 51.9378 397.439C48.7427 397.776 46.955 395.136 48.6822 392.392C75.5083 375.315 99.8216 354.758 122.944 333.021C131.73 324.762 141.191 315.83 149.468 307.123C149.649 306.931 150.364 305.879 150.303 305.829C134.012 308.861 117.688 311.814 101.538 315.525C94.9525 317.039 83.6186 321.232 77.2995 320.365C72.9671 319.772 55.9929 306.711 52.2079 303.164C51.0812 302.108 48.4655 299.734 48.1029 298.362C47.2464 295.131 51.6996 293.937 54.1555 293.728C61.9069 293.063 72.0857 293.944 80.1286 294.079C100.156 294.421 120.172 293.888 140.174 291.961C146.867 291.318 153.566 290.259 160.237 289.459C159.906 277.176 158.851 264.513 156.171 252.511C154.455 244.824 152.024 237.502 148.231 230.597C146.458 227.366 142.172 223.681 148.519 221.769C155.603 219.633 174.958 226.009 180.836 230.689C185.972 234.78 183.381 235.278 181.771 240.093C180.005 245.378 178.91 251.484 178.075 257.011C176.579 266.93 175.939 276.995 175.178 286.993L175.189 286.989Z" fill="#3FFFF8"/>
<path d="M167.729 94.7117C185.236 91.7228 202.122 85.8124 218.545 79.248C242.368 69.7267 259.381 57.0956 286.723 63.3259C292.903 64.7333 302.67 68.3122 305.221 74.6811C306.757 78.5088 305.659 82.7488 302.186 85.0589C298.543 87.4863 287.913 87.1132 283.055 87.6072C240.204 91.9645 198.145 102.09 156.609 112.919C151.693 121.101 146.057 128.721 139.83 135.946C128.073 149.594 100.259 178.005 81.5184 178.246C79.3575 178.275 72.9531 177.571 74.9434 174.127C75.5795 173.025 82.7303 168.203 84.3687 166.852C116.881 140.047 139.279 105.37 148.999 64.0864C150.176 59.0965 150.712 53.6695 151.889 48.8502C153.442 42.5204 158.869 42.7869 164.363 43.1637C174.93 43.8923 188.048 52.1306 191.012 62.7181C193.226 70.6294 186.242 71.3687 181.611 74.6526C178.747 76.6856 174.798 82.9443 172.772 86.0718C172.221 86.9212 167.37 94.3634 167.733 94.7117H167.729Z" fill="#3FFFF8"/>
<path d="M157.543 142.104C161.542 137.619 175.886 137.206 182.063 136.236C199.758 133.457 217.475 130.247 234.375 124.22C239.322 122.453 247.201 118.036 252.103 118.565C256.954 119.088 265.231 123.459 268.103 127.443C269.702 129.665 269.699 131.04 267.79 133.112C260.874 140.629 228.667 145.942 217.962 147.613C204.485 149.713 177.798 154.358 165.305 151.341C160.987 150.296 152.514 147.751 157.547 142.107L157.543 142.104Z" fill="#3FFFF8"/>
<path d="M191.662 324.072C194.832 320.625 199.407 323.027 203.096 324.296C210.726 326.926 233.092 335.868 238.292 340.989C246.42 348.997 243.388 363.199 245.588 373.527C245.663 376.452 243.431 378.755 240.431 378.303C238.37 377.994 228.219 370.73 225.899 369.02C214.191 360.395 201.962 348.741 194.232 336.358C192.071 332.897 188.179 327.861 191.662 324.072Z" fill="#3FFFF8"/>
<path d="M241.87 227.068C244.021 229.169 245.883 231.774 243.782 234.564C240.036 239.532 220.247 248.595 213.815 251.51C211.874 252.387 202.275 256.855 201.041 256.709C199.57 256.535 198.614 255.121 198.888 253.656C199.293 251.471 202.157 245.827 203.206 243.389C205.814 237.336 208.707 231.052 211.611 225.138C212.61 223.109 215.233 217.081 216.647 215.958C219.252 213.89 221.516 215.461 224.121 216.555C229.211 218.691 237.993 223.283 241.87 227.068Z" fill="#3FFFF8"/>
<path d="M135.629 262.712C134.758 263.668 130.433 265.839 128.819 267.097C128.066 267.684 127.007 268.565 126.314 269.212C121.025 274.117 121.69 277.671 113.597 273.061C104.748 268.021 95.5283 255.586 91.1284 246.484C89.9555 244.06 88.9249 240.865 92.9125 240.758C95.9548 240.677 102.377 241.768 105.657 242.262C116.078 243.836 124.661 246.338 132.014 254.289C132.864 255.209 136.023 259.033 136.304 259.971C136.563 260.849 136.236 262.051 135.632 262.715L135.629 262.712Z" fill="#3FFFF8"/>
</g>
</g>
<defs>
<filter id="filter0_d_796_1328" x="-2.00488" y="-7" width="473.906" height="488.162" filterUnits="userSpaceOnUse" color-interpolation-filters="sRGB">
<feFlood flood-opacity="0" result="BackgroundImageFix"/>
<feColorMatrix in="SourceAlpha" type="matrix" values="0 0 0 0 0 0 0 0 0 0 0 0 0 0 0 0 0 0 127 0" result="hardAlpha"/>
<feOffset/>
<feGaussianBlur stdDeviation="25"/>
<feComposite in2="hardAlpha" operator="out"/>
<feColorMatrix type="matrix" values="0 0 0 0 0.247059 0 0 0 0 1 0 0 0 0 0.972549 0 0 0 0.25 0"/>
<feBlend mode="normal" in2="BackgroundImageFix" result="effect1_dropShadow_796_1328"/>
<feBlend mode="normal" in="SourceGraphic" in2="effect1_dropShadow_796_1328" result="shape"/>
</filter>
<clipPath id="clip0_796_1328">
<rect width="477" height="498" fill="white"/>
</clipPath>
</defs>
</svg>
