<svg width="32" height="32" viewBox="0 0 32 32" fill="none" xmlns="http://www.w3.org/2000/svg">
<path d="M8.59995 20.0013C9.59995 19.5569 10.6222 19.2235 11.6666 19.0013C12.7111 18.7791 13.7666 18.668 14.8333 18.668C15.5 18.668 16.1613 18.7124 16.8173 18.8013C17.4733 18.8902 18.1231 19.0235 18.7666 19.2013C19.8777 19.5124 20.728 19.7235 21.3173 19.8346C21.9066 19.9457 22.5342 20.0013 23.2 20.0013H23.4L25 5.33464H6.99995L8.59995 20.0013ZM9.29995 29.3346C8.61106 29.3346 8.01684 29.1124 7.51728 28.668C7.01773 28.2235 6.73417 27.6569 6.66662 26.968L4.36662 5.96797C4.25551 5.07908 4.49995 4.30708 5.09995 3.65197C5.69995 2.99686 6.4444 2.66886 7.33328 2.66797H24.6666C25.5555 2.66797 26.3 2.99597 26.9 3.65197C27.5 4.30797 27.7444 5.07997 27.6333 5.96797L25.3333 26.968C25.2666 27.6569 24.9831 28.2235 24.4826 28.668C23.9822 29.1124 23.388 29.3346 22.7 29.3346H9.29995Z" fill="#3FFFF8"/>
</svg>
