<svg width="24" height="24" viewBox="0 0 24 24" fill="none" xmlns="http://www.w3.org/2000/svg">
<path fill-rule="evenodd" clip-rule="evenodd" d="M19.1515 2.42424H4.84848C4.20554 2.42424 3.58892 2.67965 3.13429 3.13429C2.67965 3.58892 2.42424 4.20554 2.42424 4.84848V19.1515C2.42424 19.7945 2.67965 20.4111 3.13429 20.8657C3.58892 21.3203 4.20554 21.5758 4.84848 21.5758H19.1515C19.7945 21.5758 20.4111 21.3203 20.8657 20.8657C21.3203 20.4111 21.5758 19.7945 21.5758 19.1515V4.84848C21.5758 4.20554 21.3203 3.58892 20.8657 3.13429C20.4111 2.67965 19.7945 2.42424 19.1515 2.42424ZM4.84848 0C3.56259 0 2.32936 0.510821 1.42009 1.42009C0.510821 2.32936 0 3.56259 0 4.84848V19.1515C0 19.7882 0.125409 20.4187 0.369068 21.0069C0.612728 21.5952 0.969865 22.1297 1.42009 22.5799C1.87031 23.0301 2.4048 23.3873 2.99305 23.6309C3.58129 23.8746 4.21177 24 4.84848 24H19.1515C19.7882 24 20.4187 23.8746 21.0069 23.6309C21.5952 23.3873 22.1297 23.0301 22.5799 22.5799C23.0301 22.1297 23.3873 21.5952 23.6309 21.0069C23.8746 20.4187 24 19.7882 24 19.1515V4.84848C24 3.56259 23.4892 2.32936 22.5799 1.42009C21.6706 0.510821 20.4374 0 19.1515 0H4.84848Z" fill="#3FFFF8"/>
<path d="M8.7274 5.45028C8.7274 5.73961 8.61247 6.01709 8.40789 6.22167C8.2033 6.42626 7.92582 6.54119 7.6365 6.54119C7.34717 6.54119 7.06969 6.42626 6.86511 6.22167C6.66052 6.01709 6.54559 5.73961 6.54559 5.45028C6.54559 5.16096 6.66052 4.88348 6.86511 4.67889C7.06969 4.47431 7.34717 4.35938 7.6365 4.35938C7.92582 4.35938 8.2033 4.47431 8.40789 4.67889C8.61247 4.88348 8.7274 5.16096 8.7274 5.45028ZM10.9092 8.72301C10.9092 9.01234 10.7943 9.28981 10.5897 9.4944C10.3851 9.69898 10.1076 9.81392 9.81832 9.81392C9.52899 9.81392 9.25151 9.69898 9.04693 9.4944C8.84234 9.28981 8.7274 9.01234 8.7274 8.72301C8.7274 8.43368 8.84234 8.15621 9.04693 7.95162C9.25151 7.74704 9.52899 7.6321 9.81832 7.6321C10.1076 7.6321 10.3851 7.74704 10.5897 7.95162C10.7943 8.15621 10.9092 8.43368 10.9092 8.72301ZM6.54559 8.72301C6.54559 9.01234 6.43065 9.28981 6.22607 9.4944C6.02148 9.69898 5.74401 9.81392 5.45468 9.81392C5.16535 9.81392 4.88787 9.69898 4.68329 9.4944C4.4787 9.28981 4.36377 9.01234 4.36377 8.72301C4.36377 8.43368 4.4787 8.15621 4.68329 7.95162C4.88787 7.74704 5.16535 7.6321 5.45468 7.6321C5.74401 7.6321 6.02148 7.74704 6.22607 7.95162C6.43065 8.15621 6.54559 8.43368 6.54559 8.72301ZM8.7274 11.9957C8.7274 12.2851 8.61247 12.5625 8.40789 12.7671C8.2033 12.9717 7.92582 13.0866 7.6365 13.0866C7.34717 13.0866 7.06969 12.9717 6.86511 12.7671C6.66052 12.5625 6.54559 12.2851 6.54559 11.9957C6.54559 11.7064 6.66052 11.4289 6.86511 11.2243C7.06969 11.0198 7.34717 10.9048 7.6365 10.9048C7.92582 10.9048 8.2033 11.0198 8.40789 11.2243C8.61247 11.4289 8.7274 11.7064 8.7274 11.9957ZM10.9092 15.2685C10.9092 15.5578 10.7943 15.8353 10.5897 16.0399C10.3851 16.2444 10.1076 16.3594 9.81832 16.3594C9.52899 16.3594 9.25151 16.2444 9.04693 16.0399C8.84234 15.8353 8.7274 15.5578 8.7274 15.2685C8.7274 14.9791 8.84234 14.7017 9.04693 14.4971C9.25151 14.2925 9.52899 14.1776 9.81832 14.1776C10.1076 14.1776 10.3851 14.2925 10.5897 14.4971C10.7943 14.7017 10.9092 14.9791 10.9092 15.2685ZM6.54559 15.2685C6.54559 15.5578 6.43065 15.8353 6.22607 16.0399C6.02148 16.2444 5.74401 16.3594 5.45468 16.3594C5.16535 16.3594 4.88787 16.2444 4.68329 16.0399C4.4787 15.8353 4.36377 15.5578 4.36377 15.2685C4.36377 14.9791 4.4787 14.7017 4.68329 14.4971C4.88787 14.2925 5.16535 14.1776 5.45468 14.1776C5.74401 14.1776 6.02148 14.2925 6.22607 14.4971C6.43065 14.7017 6.54559 14.9791 6.54559 15.2685ZM8.7274 18.5412C8.7274 18.8305 8.61247 19.108 8.40789 19.3126C8.2033 19.5172 7.92582 19.6321 7.6365 19.6321C7.34717 19.6321 7.06969 19.5172 6.86511 19.3126C6.66052 19.108 6.54559 18.8305 6.54559 18.5412C6.54559 18.2519 6.66052 17.9744 6.86511 17.7698C7.06969 17.5652 7.34717 17.4503 7.6365 17.4503C7.92582 17.4503 8.2033 17.5652 8.40789 17.7698C8.61247 17.9744 8.7274 18.2519 8.7274 18.5412ZM13.091 5.45028C13.091 5.73961 12.9761 6.01709 12.7715 6.22167C12.5669 6.42626 12.2895 6.54119 12.0001 6.54119C11.7108 6.54119 11.4333 6.42626 11.2287 6.22167C11.0242 6.01709 10.9092 5.73961 10.9092 5.45028C10.9092 5.16096 11.0242 4.88348 11.2287 4.67889C11.4333 4.47431 11.7108 4.35938 12.0001 4.35938C12.2895 4.35938 12.5669 4.47431 12.7715 4.67889C12.9761 4.88348 13.091 5.16096 13.091 5.45028ZM15.2729 8.72301C15.2729 9.01234 15.1579 9.28981 14.9533 9.4944C14.7488 9.69898 14.4713 9.81392 14.1819 9.81392C13.8926 9.81392 13.6151 9.69898 13.4106 9.4944C13.206 9.28981 13.091 9.01234 13.091 8.72301C13.091 8.43368 13.206 8.15621 13.4106 7.95162C13.6151 7.74704 13.8926 7.6321 14.1819 7.6321C14.4713 7.6321 14.7488 7.74704 14.9533 7.95162C15.1579 8.15621 15.2729 8.43368 15.2729 8.72301ZM13.091 11.9957C13.091 12.2851 12.9761 12.5625 12.7715 12.7671C12.5669 12.9717 12.2895 13.0866 12.0001 13.0866C11.7108 13.0866 11.4333 12.9717 11.2287 12.7671C11.0242 12.5625 10.9092 12.2851 10.9092 11.9957C10.9092 11.7064 11.0242 11.4289 11.2287 11.2243C11.4333 11.0198 11.7108 10.9048 12.0001 10.9048C12.2895 10.9048 12.5669 11.0198 12.7715 11.2243C12.9761 11.4289 13.091 11.7064 13.091 11.9957ZM15.2729 15.2685C15.2729 15.5578 15.1579 15.8353 14.9533 16.0399C14.7488 16.2444 14.4713 16.3594 14.1819 16.3594C13.8926 16.3594 13.6151 16.2444 13.4106 16.0399C13.206 15.8353 13.091 15.5578 13.091 15.2685C13.091 14.9791 13.206 14.7017 13.4106 14.4971C13.6151 14.2925 13.8926 14.1776 14.1819 14.1776C14.4713 14.1776 14.7488 14.2925 14.9533 14.4971C15.1579 14.7017 15.2729 14.9791 15.2729 15.2685ZM13.091 18.5412C13.091 18.8305 12.9761 19.108 12.7715 19.3126C12.5669 19.5172 12.2895 19.6321 12.0001 19.6321C11.7108 19.6321 11.4333 19.5172 11.2287 19.3126C11.0242 19.108 10.9092 18.8305 10.9092 18.5412C10.9092 18.2519 11.0242 17.9744 11.2287 17.7698C11.4333 17.5652 11.7108 17.4503 12.0001 17.4503C12.2895 17.4503 12.5669 17.5652 12.7715 17.7698C12.9761 17.9744 13.091 18.2519 13.091 18.5412ZM17.4547 5.45028C17.4547 5.73961 17.3397 6.01709 17.1352 6.22167C16.9306 6.42626 16.6531 6.54119 16.3638 6.54119C16.0744 6.54119 15.797 6.42626 15.5924 6.22167C15.3878 6.01709 15.2729 5.73961 15.2729 5.45028C15.2729 5.16096 15.3878 4.88348 15.5924 4.67889C15.797 4.47431 16.0744 4.35938 16.3638 4.35938C16.6531 4.35938 16.9306 4.47431 17.1352 4.67889C17.3397 4.88348 17.4547 5.16096 17.4547 5.45028ZM19.6365 8.72301C19.6365 9.01234 19.5216 9.28981 19.317 9.4944C19.1124 9.69898 18.8349 9.81392 18.5456 9.81392C18.2563 9.81392 17.9788 9.69898 17.7742 9.4944C17.5696 9.28981 17.4547 9.01234 17.4547 8.72301C17.4547 8.43368 17.5696 8.15621 17.7742 7.95162C17.9788 7.74704 18.2563 7.6321 18.5456 7.6321C18.8349 7.6321 19.1124 7.74704 19.317 7.95162C19.5216 8.15621 19.6365 8.43368 19.6365 8.72301ZM17.4547 11.9957C17.4547 12.2851 17.3397 12.5625 17.1352 12.7671C16.9306 12.9717 16.6531 13.0866 16.3638 13.0866C16.0744 13.0866 15.797 12.9717 15.5924 12.7671C15.3878 12.5625 15.2729 12.2851 15.2729 11.9957C15.2729 11.7064 15.3878 11.4289 15.5924 11.2243C15.797 11.0198 16.0744 10.9048 16.3638 10.9048C16.6531 10.9048 16.9306 11.0198 17.1352 11.2243C17.3397 11.4289 17.4547 11.7064 17.4547 11.9957ZM19.6365 15.2685C19.6365 15.5578 19.5216 15.8353 19.317 16.0399C19.1124 16.2444 18.8349 16.3594 18.5456 16.3594C18.2563 16.3594 17.9788 16.2444 17.7742 16.0399C17.5696 15.8353 17.4547 15.5578 17.4547 15.2685C17.4547 14.9791 17.5696 14.7017 17.7742 14.4971C17.9788 14.2925 18.2563 14.1776 18.5456 14.1776C18.8349 14.1776 19.1124 14.2925 19.317 14.4971C19.5216 14.7017 19.6365 14.9791 19.6365 15.2685ZM17.4547 18.5412C17.4547 18.8305 17.3397 19.108 17.1352 19.3126C16.9306 19.5172 16.6531 19.6321 16.3638 19.6321C16.0744 19.6321 15.797 19.5172 15.5924 19.3126C15.3878 19.108 15.2729 18.8305 15.2729 18.5412C15.2729 18.2519 15.3878 17.9744 15.5924 17.7698C15.797 17.5652 16.0744 17.4503 16.3638 17.4503C16.6531 17.4503 16.9306 17.5652 17.1352 17.7698C17.3397 17.9744 17.4547 18.2519 17.4547 18.5412Z" fill="#3FFFF8"/>
</svg>
