<svg width="32" height="32" viewBox="0 0 32 32" fill="none" xmlns="http://www.w3.org/2000/svg">
<path fill-rule="evenodd" clip-rule="evenodd" d="M6.40012 5.84544C6.39983 5.94504 6.37167 6.04257 6.3188 6.12699C6.26594 6.2114 6.19049 6.27933 6.10101 6.32307C6.01153 6.36681 5.91159 6.38462 5.8125 6.37448C5.71342 6.36434 5.61915 6.32666 5.54038 6.26571L2.14198 3.62251C2.07814 3.57263 2.0265 3.50885 1.99099 3.43603C1.95547 3.36321 1.93701 3.28326 1.93701 3.20224C1.93701 3.12122 1.95547 3.04127 1.99099 2.96845C2.0265 2.89563 2.07814 2.83185 2.14198 2.78197L5.54038 0.13664C5.61944 0.0754604 5.7141 0.0377308 5.81357 0.0277545C5.91303 0.0177781 6.0133 0.0359566 6.10293 0.0802166C6.19256 0.124477 6.26795 0.193036 6.3205 0.278076C6.37304 0.363115 6.40063 0.46121 6.40012 0.561173V2.13984H19.2001V0.556907C19.2001 0.456935 19.2282 0.35897 19.2811 0.274185C19.3341 0.1894 19.4098 0.12121 19.4997 0.0773937C19.5896 0.0335772 19.6899 0.0158983 19.7893 0.0263739C19.8888 0.0368494 19.9832 0.0750576 20.062 0.13664L23.4583 2.77984C23.5221 2.82972 23.5737 2.89349 23.6093 2.96631C23.6448 3.03913 23.6632 3.11909 23.6632 3.20011C23.6632 3.28113 23.6448 3.36108 23.6093 3.4339C23.5737 3.50672 23.5221 3.57049 23.4583 3.62037L20.062 6.26571C19.9831 6.3274 19.8884 6.36564 19.7888 6.37603C19.6892 6.38643 19.5887 6.36857 19.4987 6.32449C19.4088 6.28041 19.3331 6.2119 19.2803 6.12681C19.2275 6.04171 19.1997 5.94346 19.2001 5.84331V4.26891H6.40012V5.84544ZM20.2668 10.6689H5.33345C5.05055 10.6689 4.77924 10.7813 4.5792 10.9813C4.37917 11.1814 4.26679 11.4527 4.26679 11.7356V26.6689C4.26679 26.9518 4.37917 27.2231 4.5792 27.4232C4.77924 27.6232 5.05055 27.7356 5.33345 27.7356H20.2668C20.5497 27.7356 20.821 27.6232 21.021 27.4232C21.2211 27.2231 21.3335 26.9518 21.3335 26.6689V11.7356C21.3335 11.4527 21.2211 11.1814 21.021 10.9813C20.821 10.7813 20.5497 10.6689 20.2668 10.6689ZM5.33345 8.53557C4.48476 8.53557 3.67083 8.87271 3.07071 9.47283C2.47059 10.0729 2.13345 10.8869 2.13345 11.7356V26.6689C2.13345 27.5176 2.47059 28.3315 3.07071 28.9317C3.67083 29.5318 4.48476 29.8689 5.33345 29.8689H20.2668C21.1155 29.8689 21.9294 29.5318 22.5295 28.9317C23.1296 28.3315 23.4668 27.5176 23.4668 26.6689V11.7356C23.4668 10.8869 23.1296 10.0729 22.5295 9.47283C21.9294 8.87271 21.1155 8.53557 20.2668 8.53557H5.33345ZM31.4433 12.8022H29.8668V25.6022H31.4433C31.5429 25.6025 31.6405 25.6307 31.7249 25.6836C31.8093 25.7364 31.8772 25.8119 31.9209 25.9013C31.9647 25.9908 31.9825 26.0908 31.9724 26.1899C31.9622 26.2889 31.9245 26.3832 31.8636 26.462L29.2204 29.8604C29.1705 29.9242 29.1067 29.9759 29.0339 30.0114C28.9611 30.0469 28.8811 30.0653 28.8001 30.0653C28.7191 30.0653 28.6391 30.0469 28.5663 30.0114C28.4935 29.9759 28.4297 29.9242 28.3799 29.8604L25.7345 26.462C25.6735 26.3831 25.6357 26.2886 25.6257 26.1893C25.6156 26.0901 25.6336 25.9899 25.6776 25.9004C25.7216 25.8108 25.7899 25.7354 25.8746 25.6827C25.9593 25.63 26.0571 25.6021 26.1569 25.6022H27.7335V12.8022H26.1569C26.0573 12.802 25.9598 12.7738 25.8754 12.7209C25.791 12.6681 25.723 12.5926 25.6793 12.5031C25.6355 12.4137 25.6177 12.3137 25.6279 12.2146C25.638 12.1155 25.6757 12.0213 25.7367 11.9425L28.3799 8.54411C28.4297 8.48026 28.4935 8.42862 28.5663 8.39311C28.6391 8.35759 28.7191 8.33913 28.8001 8.33913C28.8811 8.33913 28.9611 8.35759 29.0339 8.39311C29.1067 8.42862 29.1705 8.48026 29.2204 8.54411L31.8657 11.9425C31.9268 12.0214 31.9645 12.1159 31.9745 12.2152C31.9846 12.3144 31.9666 12.4145 31.9226 12.5041C31.8786 12.5936 31.8104 12.6691 31.7256 12.7218C31.6409 12.7745 31.5431 12.8024 31.4433 12.8022Z" fill="#3FFFF8"/>
</svg>
