<svg width="16" height="20" viewBox="0 0 16 20" fill="none" xmlns="http://www.w3.org/2000/svg">
<path d="M2 20C1.45 20 0.979333 19.8043 0.588 19.413C0.196666 19.0217 0.000666667 18.5507 0 18V6C0 5.45 0.196 4.97933 0.588 4.588C0.98 4.19667 1.45067 4.00067 2 4H4C4 2.9 4.39167 1.95833 5.175 1.175C5.95833 0.391667 6.9 0 8 0C9.1 0 10.0417 0.391667 10.825 1.175C11.6083 1.95833 12 2.9 12 4H14C14.55 4 15.021 4.196 15.413 4.588C15.805 4.98 16.0007 5.45067 16 6V18C16 18.55 15.8043 19.021 15.413 19.413C15.0217 19.805 14.5507 20.0007 14 20H2ZM2 18H14V6H12V8C12 8.28333 11.904 8.521 11.712 8.713C11.52 8.905 11.2827 9.00067 11 9C10.7173 8.99933 10.48 8.90333 10.288 8.712C10.096 8.52067 10 8.28333 10 8V6H6V8C6 8.28333 5.904 8.521 5.712 8.713C5.52 8.905 5.28267 9.00067 5 9C4.71733 8.99933 4.48 8.90333 4.288 8.712C4.096 8.52067 4 8.28333 4 8V6H2V18ZM6 4H10C10 3.45 9.80433 2.97933 9.413 2.588C9.02167 2.19667 8.55067 2.00067 8 2C7.44933 1.99933 6.97867 2.19533 6.588 2.588C6.19733 2.98067 6.00133 3.45133 6 4Z" fill="white"/>
</svg>
