<svg width="21" height="21" viewBox="0 0 21 21" fill="none" xmlns="http://www.w3.org/2000/svg">
<path d="M10.5 20C11.7476 20 12.9829 19.7543 14.1355 19.2769C15.2881 18.7994 16.3354 18.0997 17.2175 17.2175C18.0997 16.3354 18.7994 15.2881 19.2769 14.1355C19.7543 12.9829 20 11.7476 20 10.5C20 9.25244 19.7543 8.0171 19.2769 6.86451C18.7994 5.71191 18.0997 4.66464 17.2175 3.78249C16.3354 2.90033 15.2881 2.20056 14.1355 1.72314C12.9829 1.24572 11.7476 1 10.5 1M10.5 20C9.25244 20 8.0171 19.7543 6.86451 19.2769C5.71191 18.7994 4.66464 18.0997 3.78249 17.2175C2.90033 16.3354 2.20056 15.2881 1.72314 14.1355C1.24572 12.9829 1 11.7476 1 10.5C1 9.25244 1.24572 8.0171 1.72314 6.86451C2.20056 5.71191 2.90033 4.66464 3.78249 3.78249C4.66464 2.90033 5.71191 2.20056 6.86451 1.72314C8.0171 1.24572 9.25244 1 10.5 1M10.5 20C13.4144 20 14.6599 14.5502 14.6599 10.5C14.6599 6.44983 13.4144 1 10.5 1M10.5 20C7.58561 20 6.34006 14.5502 6.34006 10.5C6.34006 6.44983 7.58561 1 10.5 1M1.52778 7.33333H19.4722M1.52778 13.6667H19.4722" stroke="white" stroke-width="1.5" stroke-linecap="round" stroke-linejoin="round"/>
</svg>
