<svg width="170" height="22" viewBox="0 0 170 22" fill="none" xmlns="http://www.w3.org/2000/svg">
<g clip-path="url(#clip0_0_14)">
<path d="M33.8261 0.179688V13.0319C33.8261 14.0063 33.6093 15.6955 33.2015 16.4703C32.1434 18.4707 30.0142 19.913 27.0437 19.9195C24.0732 19.913 21.944 18.4707 20.8859 16.4703C20.4759 15.6976 20.2613 14.0085 20.2613 13.0319V0.179688H18.731V13.0319C18.731 14.2553 19.0078 16.1913 19.5337 17.1851C20.4673 18.9493 22.5235 21.4326 27.0179 21.4477C27.0179 21.4477 27.0351 21.4477 27.0437 21.4477C27.0523 21.4477 27.0609 21.4477 27.0694 21.4477C31.5639 21.4305 33.62 18.9472 34.5537 17.1829C35.0774 16.1892 35.3564 14.2532 35.3564 13.0298V0.179688H33.8261Z" fill="white"/>
<path d="M13.5584 21.3403H0V0.332031H1.53033V19.81H13.5584V21.3403Z" fill="white"/>
<path d="M75.7032 0.279297H74.1729V21.44H75.7032V0.279297Z" fill="white"/>
<path d="M107.606 0.279297H106.076V21.44H107.606V0.279297Z" fill="white"/>
<path d="M90.4033 21.1445L80.8027 0.222034H82.4661L90.6887 18.101C90.7574 18.2533 90.9742 18.2533 91.045 18.101L99.4007 0.185547L101.064 0.222034L91.3133 21.1487C91.133 21.5351 90.5814 21.5351 90.4033 21.1466V21.1445Z" fill="white"/>
<path d="M141.04 0.47718L150.64 21.3996H148.977L140.754 3.52067C140.685 3.36829 140.469 3.36829 140.398 3.52067L132.044 21.4361L130.381 21.3996L140.132 0.475034C140.312 0.0886943 140.864 0.0886943 141.042 0.47718H141.04Z" fill="white"/>
<path d="M129.647 0.0527344H113.075V1.58307H120.598V21.4388H122.126V1.58307H129.647V0.0527344Z" fill="white"/>
<path d="M170 0H156.396V1.53033H170V0Z" fill="white"/>
<path d="M170 9.94141H156.396V11.4717H170V9.94141Z" fill="white"/>
<path d="M170 19.8828H156.396V21.4131H170V19.8828Z" fill="white"/>
<path d="M63.8594 0.561557L54.8942 15.3648C54.8577 15.427 54.7955 15.4549 54.7332 15.4635C54.671 15.4571 54.6109 15.427 54.5722 15.3648L45.6092 0.561557C45.2142 -0.090927 44.2119 0.190242 44.2119 0.952189V21.4625H45.7422V3.55783L54.3276 17.627C54.4199 17.7794 54.5787 17.8545 54.7354 17.8545C54.892 17.8545 55.0509 17.7794 55.1432 17.627L63.7285 3.55783V21.4625H65.2588V0.952189C65.2588 0.190242 64.2565 -0.0887807 63.8616 0.561557H63.8594Z" fill="white"/>
</g>
<defs>
<clipPath id="clip0_0_14">
<rect width="170" height="21.4633" fill="white"/>
</clipPath>
</defs>
</svg>
